<svg width="27" height="24" fill="none" xmlns="http://www.w3.org/2000/svg"><path d="M0 1.832h3.314a1 1 0 0 1 .96.72l3.643 12.466a1 1 0 0 0 .96.72h12.717a1 1 0 0 0 .963-.73l2.484-8.815a1 1 0 0 0-.963-1.271H8.128m5.096 15.451c0 1.167-.93 2.09-2.048 2.09-1.118 0-2.048-.923-2.048-2.09 0-1.168.93-2.09 2.048-2.09 1.118 0 2.048.922 2.048 2.09Zm8.127 0c0 1.167-.93 2.09-2.048 2.09-1.118 0-2.048-.923-2.048-2.09 0-1.168.93-2.09 2.048-2.09 1.118 0 2.048.922 2.048 2.09Z" stroke="#A8A8A8" stroke-width="2"/></svg>