<svg xmlns="http://www.w3.org/2000/svg" xmlns:xlink="http://www.w3.org/1999/xlink"><symbol id="accessories" viewBox="0 0 31 65"><g fill="none">
<path d="M21.7866 7.99994V24.6634C21.7866 24.7675 21.7866 24.9756 21.7866 25.0797C21.381 26.7447 18.7447 27.9935 15.6013 27.9935C12.458 27.9935 9.82161 26.7447 9.41602 25.0797C9.41602 24.9756 9.41602 24.8715 9.41602 24.6634V7.70081C9.41602 7.59674 9.41601 7.38861 9.51741 7.28455C10.0244 6.03577 12.5594 5.09918 15.7027 5.09918C18.8461 5.09918 21.5 5.99994 21.635 7.28455C21.635 7.28455 21.7866 7.79181 21.7866 7.99994Z" stroke="white" stroke-width="2" stroke-miterlimit="10"/>
<path d="M15.5 5.09919C14.7902 5.09919 14.2832 4.4748 14.2832 3.85041V1.24878C14.2832 0.520325 14.8916 0 15.5 0C16.2098 0 16.7168 0.62439 16.7168 1.24878V3.85041C16.7168 4.57886 16.2098 5.09919 15.5 5.09919Z" fill="white"/>
<path d="M14.283 1.97723C14.283 1.97723 13.8774 4.1626 10.5312 5.20325H15.4998L14.283 1.97723Z" fill="white"/>
<path d="M16.7168 1.97723C16.7168 1.97723 17.1224 4.1626 20.4685 5.20325H15.5L16.7168 1.97723Z" fill="white"/>
<path d="M18.8461 27.6813H12.1538V31.1154H18.8461V27.6813Z" fill="white" fill-opacity="0.7"/>
<path d="M15.5001 33.3008C20.3161 33.3008 24.2203 32.7417 24.2203 32.052C24.2203 31.3623 20.3161 30.8032 15.5001 30.8032C10.684 30.8032 6.77979 31.3623 6.77979 32.052C6.77979 32.7417 10.684 33.3008 15.5001 33.3008Z" stroke="white" stroke-width="2" stroke-miterlimit="10"/>
<path d="M6.77979 31.5318V37.5675" stroke="white" stroke-width="2" stroke-miterlimit="10"/>
<path d="M24.2202 32.0521V37.9838" stroke="white" stroke-width="2" stroke-miterlimit="10"/>
<path d="M30 38.8162C30 39.9609 23.5105 41.8341 15.5 41.8341C7.48951 41.8341 1 40.065 1 38.8162C1 38.4 4.34616 36.6309 6.77972 36.6309C8.4021 37.0471 13.0664 37.4634 15.5 37.4634C17.9336 37.4634 22.6993 37.0471 24.2203 36.6309C26.7552 36.7349 30 38.4 30 38.8162Z" stroke="white" stroke-width="2" stroke-miterlimit="10"/>
<path d="M24.2203 41.1057V50.3675C24.2203 51.3041 20.2658 52.0325 15.5001 52.0325C10.7343 52.0325 6.77979 51.3041 6.77979 50.3675V41.1057" stroke="white" stroke-width="2" stroke-miterlimit="10"/>
<path d="M9.21338 51.2V60.5658" stroke="white" stroke-width="2" stroke-miterlimit="10"/>
<path d="M21.7866 51.2V60.5658" stroke="white" stroke-width="2" stroke-miterlimit="10"/>
<path d="M17.1225 64H13.8778C13.168 64 12.5596 63.3756 12.5596 62.6472V52.0325H18.3393V62.6472C18.4407 63.3756 17.8323 64 17.1225 64Z" stroke="white" stroke-width="2" stroke-miterlimit="10"/>
</g></symbol><symbol id="actions" viewBox="0 0 15 16"><g fill="none">
<path d="M4.011 7.692C3.507 7.692 3.045 7.608 2.625 7.44C2.219 7.258 1.869 7.02 1.575 6.726C1.281 6.418 1.05 6.054 0.882 5.634C0.728 5.214 0.651 4.759 0.651 4.269C0.651 3.779 0.728 3.324 0.882 2.904C1.05 2.47 1.281 2.099 1.575 1.791C1.869 1.469 2.219 1.224 2.625 1.056C3.045 0.873999 3.507 0.782999 4.011 0.782999C4.515 0.782999 4.977 0.873999 5.397 1.056C5.817 1.224 6.174 1.469 6.468 1.791C6.762 2.099 6.993 2.47 7.161 2.904C7.329 3.324 7.413 3.779 7.413 4.269C7.413 4.759 7.329 5.214 7.161 5.634C6.993 6.054 6.762 6.418 6.468 6.726C6.174 7.02 5.817 7.258 5.397 7.44C4.977 7.608 4.515 7.692 4.011 7.692ZM2.688 15L11.634 0.992999H12.789L3.822 15H2.688ZM11.319 15.252C10.815 15.252 10.353 15.168 9.933 15C9.527 14.818 9.177 14.58 8.883 14.286C8.589 13.978 8.358 13.614 8.19 13.194C8.036 12.774 7.959 12.319 7.959 11.829C7.959 11.339 8.036 10.884 8.19 10.464C8.358 10.03 8.589 9.659 8.883 9.351C9.177 9.029 9.527 8.784 9.933 8.616C10.353 8.434 10.815 8.343 11.319 8.343C11.823 8.343 12.278 8.434 12.684 8.616C13.104 8.784 13.461 9.029 13.755 9.351C14.049 9.659 14.28 10.03 14.448 10.464C14.616 10.884 14.7 11.339 14.7 11.829C14.7 12.319 14.616 12.774 14.448 13.194C14.28 13.614 14.049 13.978 13.755 14.286C13.461 14.58 13.104 14.818 12.684 15C12.278 15.168 11.823 15.252 11.319 15.252ZM4.011 6.642C4.319 6.642 4.606 6.579 4.872 6.453C5.138 6.327 5.362 6.159 5.544 5.949C5.74 5.739 5.887 5.494 5.985 5.214C6.097 4.92 6.153 4.605 6.153 4.269C6.153 3.569 5.95 2.995 5.544 2.547C5.152 2.085 4.641 1.854 4.011 1.854C3.381 1.854 2.87 2.085 2.478 2.547C2.1 2.995 1.911 3.569 1.911 4.269C1.911 4.941 2.1 5.508 2.478 5.97C2.87 6.418 3.381 6.642 4.011 6.642ZM11.319 14.202C11.627 14.202 11.914 14.139 12.18 14.013C12.446 13.887 12.67 13.719 12.852 13.509C13.048 13.299 13.195 13.054 13.293 12.774C13.405 12.48 13.461 12.165 13.461 11.829C13.461 11.129 13.258 10.555 12.852 10.107C12.46 9.645 11.949 9.414 11.319 9.414C10.689 9.414 10.178 9.645 9.786 10.107C9.394 10.555 9.198 11.129 9.198 11.829C9.198 12.165 9.247 12.48 9.345 12.774C9.457 13.054 9.604 13.299 9.786 13.509C9.968 13.719 10.185 13.887 10.437 14.013C10.703 14.139 10.997 14.202 11.319 14.202Z" fill="#E5E5E5"/>
</g></symbol><symbol id="address" viewBox="0 0 35 35"><g fill="none">
<path d="M13.6561 23.7113L12.8073 24.24L13.6561 23.7113C13.372 23.2552 12.9164 22.9327 12.392 22.8163L12.1752 23.7925L12.3919 22.8163L1.49747 20.3979L23.9518 7.82864L19.5566 33.1835L13.6561 23.7113Z" stroke="#A8A8A8" stroke-width="2"/>
</g></symbol><symbol id="arrow-back" viewBox="0 0 14 10"><g fill="none">
<path fill-rule="evenodd" clip-rule="evenodd" d="M2.85 4.02663L5.71981 1.05L4.66981 0L0 4.77663L4.4544 9.21657L5.5044 8.16657L2.85 5.52663L13.2444 5.55263V4.05263L2.85 4.02663Z" fill="#48494D"/>
</g></symbol><symbol id="arrow-dark-left" viewBox="0 0 15 9"><g fill="none">
<path d="M1.60986 4.41936L5.59239 8.54691M1.60986 4.41936L5.65494 0.51445M1.60986 4.41936L14.743 4.65262" stroke="#BDBDBD"/>
</g></symbol><symbol id="arrow-dark-right" viewBox="0 0 15 9"><g fill="none">
<path d="M13.3813 4.41936L9.39882 8.54691M13.3813 4.41936L9.33628 0.51445M13.3813 4.41936L0.248227 4.65262" stroke="#BDBDBD"/>
</g></symbol><symbol id="arrow-left" viewBox="0 0 15 9"><g fill="none">
<path d="M1.60986 4.41936L5.59239 8.54691M1.60986 4.41936L5.65494 0.51445M1.60986 4.41936L14.743 4.65262" stroke="#fff"/>
</g></symbol><symbol id="arrow-right" viewBox="0 0 15 9"><g fill="none">
<path d="M13.3813 4.41936L9.39882 8.54691M13.3813 4.41936L9.33628 0.51445M13.3813 4.41936L0.248227 4.65262" stroke="#fff"/>
</g></symbol><symbol id="arrows-sort" viewBox="0 0 19 13"><g fill="none">
<path fill-rule="evenodd" clip-rule="evenodd" d="M4.74989 13L4.74989 2.05833L7.70545 5.09167L8.44434 4.33333L4.22211 0L-0.000108719 4.33333L0.73878 5.09167L3.69434 2.05833L3.69434 13H4.74989Z" fill="#48494D"/>
<path fill-rule="evenodd" clip-rule="evenodd" d="M14.2501 0V10.9417L11.2946 7.90833L10.5557 8.66667L14.7779 13L19.0001 8.66667L18.2612 7.90833L15.3057 10.9417V0H14.2501Z" fill="#48494D"/>
</g></symbol><symbol id="autochemicals" viewBox="0 0 44 65"><g fill="none">
<path d="M35 8.00002C35 8.00002 35 10.3 35.9 11.9C36.5 12.9 39.6 17.3 41.5 19.6C42.7 21 42.4 22.4 42.4 22.7V61.4C42.4 62.3 41.6 62.9 40.5 62.9H3.4C2.4 62.9 2 62.3 2 61.4V28.4C2 25.3 3 22.4 6 20.4L24.1 11.8C25.6 11.1 26.6 9.80002 26.7 8.40002C26.7 8.20002 26.7 8.10002 26.7 7.90002H35V8.00002Z" stroke="white" stroke-width="3" stroke-miterlimit="10"/>
<path d="M35 8.5H26C25.4 8.5 25 8 25 7.5V3C25 2.4 25.5 2 26 2H35C35.6 2 36 2.5 36 3V7.5C36 8 35.5 8.5 35 8.5Z" stroke="white" stroke-width="3" stroke-miterlimit="10"/>
<path d="M17 46.5H37" stroke="white" stroke-width="3" stroke-miterlimit="10"/>
<path d="M17 54.5H30" stroke="white" stroke-width="3" stroke-miterlimit="10"/>
</g></symbol><symbol id="autoelectronic" viewBox="0 0 62 49"><g fill="none">
<rect x="5" y="20" width="52" height="28" stroke="white" stroke-width="2"/>
<rect x="1" y="10" width="60" height="5" rx="2.5" stroke="white" stroke-width="2"/>
<rect x="16" y="1" width="30" height="4" stroke="white" stroke-width="2"/>
<path d="M7 2.5C7 1.11929 8.11929 0 9.5 0C10.8807 0 12 1.11929 12 2.5V6H7V2.5Z" fill="white"/>
<path d="M50 3C50 1.34315 51.3431 0 53 0C54.6569 0 56 1.34315 56 3V6H50V3Z" fill="white"/>
<rect x="42.7437" y="28.0853" width="1.79268" height="11.3537" rx="0.896341" fill="white"/>
<rect x="37.9634" y="34.6585" width="1.79268" height="11.3537" rx="0.896341" transform="rotate(-90 37.9634 34.6585)" fill="white"/>
<rect x="13" y="35" width="2" height="11" rx="1" transform="rotate(-90 13 35)" fill="white"/>
</g></symbol><symbol id="bars" viewBox="0 0 20 28"><g fill="none">
<rect x="16" y="15.7708" width="4" height="11.7255" rx="2" fill="#CDCDCD"/>
<rect x="8" y="0.527588" width="4" height="26.9687" rx="2" fill="#CDCDCD"/>
<rect y="9.90796" width="4" height="17.5883" rx="2" fill="#CDCDCD"/>
</g></symbol><symbol id="cart" viewBox="0 0 27 24"><g fill="none">
<path d="M0 1.83191H3.31429C3.75854 1.83191 4.14952 2.12499 4.27414 2.5514L7.91748 15.018C8.0421 15.4444 8.43308 15.7375 8.87733 15.7375H21.5942C22.042 15.7375 22.4352 15.4398 22.5567 15.0088L25.041 6.19329C25.2208 5.55527 24.7413 4.92205 24.0785 4.92205H8.12775" stroke="#A8A8A8" stroke-width="2"/>
<path d="M13.2237 20.3727C13.2237 21.5401 12.2939 22.4629 11.1758 22.4629C10.0577 22.4629 9.12793 21.5401 9.12793 20.3727C9.12793 19.2054 10.0577 18.2826 11.1758 18.2826C12.2939 18.2826 13.2237 19.2054 13.2237 20.3727Z" stroke="#A8A8A8" stroke-width="2"/>
<path d="M21.3512 20.3727C21.3512 21.5401 20.4214 22.4629 19.3033 22.4629C18.1852 22.4629 17.2554 21.5401 17.2554 20.3727C17.2554 19.2054 18.1852 18.2826 19.3033 18.2826C20.4214 18.2826 21.3512 19.2054 21.3512 20.3727Z" stroke="#A8A8A8" stroke-width="2"/>
</g></symbol><symbol id="delivery" viewBox="0 0 17 17"><g fill="none">
<path d="M10.6352 3.14282H16.5358V15.1641C16.5358 15.6815 16.0699 16 15.5653 16H1.35721C0.852555 16 0.464355 15.6019 0.464355 15.0844V3.14282H6.28734" stroke="#E5E5E5" stroke-width="0.8" stroke-miterlimit="10"/>
<path d="M10.8496 3.14286H16.4809C16.5197 3.14286 16.5585 3.11088 16.5197 3.07889L14.4226 1H2.57758L0.480441 3.07889C0.441605 3.11088 0.480444 3.14286 0.51928 3.14286H6.1505" stroke="#E5E5E5" stroke-width="0.8" stroke-miterlimit="10"/>
<path d="M11.1784 3.14286L10.2468 1H6.84613L5.82129 3.14286" stroke="#E5E5E5" stroke-width="0.8" stroke-miterlimit="10"/>
<path d="M11.1784 3.14282V7.42854L8.56854 5.92274L5.82129 7.42854V3.14282" stroke="#E5E5E5" stroke-width="0.8" stroke-miterlimit="10"/>
<path d="M10.4508 11.7143H6.58616C6.14334 11.7143 5.82129 11.276 5.82129 10.7889V10.4967C5.82129 9.96102 6.1836 9.57141 6.58616 9.57141H10.4105C10.8533 9.57141 11.1754 10.0097 11.1754 10.4967V10.7889C11.2156 11.3247 10.8533 11.7143 10.4508 11.7143Z" stroke="#E5E5E5" stroke-width="0.8" stroke-miterlimit="10"/>
</g></symbol><symbol id="favorites-active" viewBox="0 0 25 22"><g fill="none">
<path fill-rule="evenodd" clip-rule="evenodd" d="M6.36656 0C2.47849 0 -0.607504 3.56658 0.102085 8.68573C0.71793 13.1286 11.3223 22 12.5 22C13.6777 22 24.2821 13.1286 24.8979 8.68573C25.6075 3.56647 22.5215 0 18.6334 0C16.0414 0 14.0222 1.0898 12.5 3.26939C10.9778 1.0898 8.9586 0 6.36656 0Z" fill="#FF7931"/>
</g></symbol><symbol id="favorites-grey" viewBox="0 0 27 25"><g fill="none">
<path fill-rule="evenodd" clip-rule="evenodd" d="M7.36656 1.2063C3.47849 1.2063 0.392496 4.77288 1.10209 9.89202C1.71793 14.3349 12.3223 23.2063 13.5 23.2063C14.6777 23.2063 25.2821 14.3349 25.8979 9.89202C26.6075 4.77277 23.5215 1.2063 19.6334 1.2063C17.0414 1.2063 15.0222 2.2961 13.5 4.47569C11.9778 2.2961 9.9586 1.2063 7.36656 1.2063Z" stroke="#E5E5E5" stroke-width="2"/>
</g></symbol><symbol id="favorites" viewBox="0 0 27 25"><g fill="none">
<path fill-rule="evenodd" clip-rule="evenodd" d="M7.36656 1.2063C3.47849 1.2063 0.392496 4.77288 1.10209 9.89202C1.71793 14.3349 12.3223 23.2063 13.5 23.2063C14.6777 23.2063 25.2821 14.3349 25.8979 9.89202C26.6075 4.77277 23.5215 1.2063 19.6334 1.2063C17.0414 1.2063 15.0222 2.2961 13.5 4.47569C11.9778 2.2961 9.9586 1.2063 7.36656 1.2063Z" stroke="#A8A8A8" stroke-width="2"/>
</g></symbol><symbol id="filter" viewBox="0 0 15 15"><g fill="none">
<path d="M13.9782 1.0314L9.50357 7.48153C9.50124 7.48488 9.5 7.48886 9.5 7.49294V10.4722C9.5 10.4775 9.49789 10.4826 9.49413 10.4864L5.53413 14.4383C5.52152 14.4509 5.5 14.4419 5.5 14.4241V7.49294C5.5 7.48886 5.49876 7.48488 5.49643 7.48153L1.02178 1.0314C1.01258 1.01814 1.02207 1 1.03822 1H13.9618C13.9779 1 13.9874 1.01814 13.9782 1.0314Z" stroke="#48494D"/>
</g></symbol><symbol id="group-list" viewBox="0 0 25 19"><g fill="none">
<g opacity="0.3">
<rect x="6" width="19" height="3" rx="1.5" fill="#48494D"/>
<rect x="6" y="8" width="19" height="3" rx="1.5" fill="#48494D"/>
<rect x="6" y="16" width="19" height="3" rx="1.5" fill="#48494D"/>
<rect width="3" height="3" rx="1.5" fill="#48494D"/>
<rect y="8" width="3" height="3" rx="1.5" fill="#48494D"/>
<rect y="16" width="3" height="3" rx="1.5" fill="#48494D"/>
</g>
</g></symbol><symbol id="group-table" viewBox="0 0 23 21"><g fill="none">
<rect x="1" y="1" width="21" height="19" stroke="#48494D" stroke-width="2"/>
<rect x="6" y="5" width="4" height="4" fill="#48494D"/>
<rect x="6" y="12" width="4" height="4" fill="#48494D"/>
<rect x="13" y="5" width="4" height="4" fill="#48494D"/>
<rect x="13" y="12" width="4" height="4" fill="#48494D"/>
</g></symbol><symbol id="login" viewBox="0 0 21 25"><g fill="none">
<path d="M10.3478 0.831909C6.35825 0.831909 3.10435 4.04643 3.10435 7.98771C3.10435 10.4355 4.36549 12.6078 6.27337 13.8976C2.57079 15.455 0 19.0888 0 23.3216H2.06957C2.06957 18.7573 5.72768 15.1435 10.3478 15.1435C14.968 15.1435 18.6261 18.7573 18.6261 23.3216H20.6957C20.6957 19.0888 18.1249 15.455 14.4223 13.8976C16.3302 12.6078 17.5913 10.4355 17.5913 7.98771C17.5913 4.04643 14.3374 0.831909 10.3478 0.831909ZM10.3478 2.87642C13.2177 2.87642 15.5217 5.15254 15.5217 7.98771C15.5217 10.8229 13.2177 13.099 10.3478 13.099C7.47792 13.099 5.17391 10.8229 5.17391 7.98771C5.17391 5.15254 7.47792 2.87642 10.3478 2.87642Z" fill="#A8A8A8"/>
<ellipse cx="1.03478" cy="23.3216" rx="1.03478" ry="1.02226" fill="#A8A8A8"/>
<ellipse cx="19.6608" cy="23.3216" rx="1.03478" ry="1.02226" fill="#A8A8A8"/>
</g></symbol><symbol id="product-card" viewBox="0 0 22 26"><g fill="none">
<path d="M1 6.53846V25H21V6.53846H1ZM5.54545 6.53846C5.54545 6.53846 5.54545 1 11 1C16.4545 1 16.4545 6.53846 16.4545 6.53846" fill="#FF7931"/>
<path d="M5.54545 6.53846C5.54545 6.53846 5.54545 1 11 1C16.4545 1 16.4545 6.53846 16.4545 6.53846M1 6.53846V25H21V6.53846H1Z" stroke="white" stroke-width="2" stroke-linecap="round" stroke-linejoin="round"/>
</g></symbol><symbol id="rouble-new" viewBox="0 0 14 17"><g fill="none">
<path d="M1.97949 8.42396C1.97949 5.79865 1.97949 3.17334 1.97949 0.373008C4.59557 0.373008 6.9642 0.267998 9.33281 0.408014C11.8075 0.548031 13.6812 2.85831 13.6104 5.37861C13.5397 7.8289 11.6307 9.96415 9.15605 10.0692C7.38843 10.1742 5.65615 10.1042 3.81782 10.1042L1.97949 8.42396ZM3.81782 1.9832C3.81782 4.22347 3.81782 6.32372 3.81782 8.49397C4.2774 8.52898 5.65615 8.49397 6.00968 8.49397C6.99954 8.49397 8.3783 8.52897 9.15605 8.42396C10.8176 8.24894 12.0196 6.81378 11.9842 5.20359C11.9489 3.52339 10.6762 2.08821 8.94392 1.9832C7.28236 1.91319 5.58544 1.9832 3.81782 1.9832Z" fill="#FF7931"/>
<path d="M7.17631 10.4892C6.64602 10.4892 6.08038 10.4892 5.51474 10.4892C4.9491 10.4892 4.38347 10.4892 3.81783 10.4892V9.78915C4.38347 9.78915 4.9491 9.78915 5.51474 9.78915C6.75208 9.78915 7.95408 9.82416 9.15606 9.75415C11.4186 9.61413 13.2216 7.72391 13.2569 5.37863C13.3276 2.96335 11.5247 0.898098 9.29746 0.758081C7.67125 0.653069 6.04503 0.688071 4.34812 0.723075C3.67642 0.723075 3.00472 0.758081 2.33302 0.758081V8.45899H1.62598V0.0579981H1.9795C2.79261 0.0579981 3.57036 0.057996 4.34812 0.0229918C6.08039 -0.0120123 7.7066 -0.0120102 9.36817 0.0579981C11.9842 0.198015 14.0347 2.61331 13.9993 5.37863C13.9286 8.07395 11.8428 10.2792 9.22675 10.4192C8.5197 10.4892 7.84801 10.4892 7.17631 10.4892ZM7.17631 8.84404C6.82279 8.84404 6.43391 8.84404 6.00969 8.84404C5.86828 8.84404 5.58546 8.84404 5.26729 8.84404C4.70165 8.84404 4.06531 8.84404 3.78249 8.84404L3.46431 8.80903V1.59818H3.81783C4.38347 1.59818 4.91377 1.59818 5.44406 1.59818C6.64604 1.59818 7.81267 1.56318 8.9793 1.63318C10.853 1.7382 12.3378 3.31339 12.3731 5.20361C12.4085 7.02383 10.9944 8.59901 9.22675 8.77403C8.76717 8.84404 8.06012 8.84404 7.17631 8.84404ZM5.86827 8.14396C5.93897 8.14396 5.97433 8.14396 6.00969 8.14396C7.49449 8.17896 8.5197 8.14396 9.12069 8.10895C10.5348 7.96894 11.6661 6.70878 11.6307 5.23861C11.6307 3.69843 10.4287 2.43828 8.90859 2.36827C7.77731 2.29827 6.64604 2.33327 5.44406 2.33327C5.01983 2.33327 4.59558 2.33327 4.17136 2.33327V8.14396C4.48953 8.14396 4.91377 8.14396 5.26729 8.14396C5.51476 8.14396 5.72686 8.14396 5.86827 8.14396Z" fill="#FF7931"/>
<path d="M4.4542 8.49402H0.388672V10.1392H4.4542V8.49402Z" fill="#FF7931"/>
<path d="M4.77258 10.4542H0V8.10889H4.77258V10.4542ZM0.742392 9.75409H4.10087V8.80897H0.742392V9.75409Z" fill="#FF7931"/>
<path d="M7.74199 11.7494H0.388672V13.3946H7.74199V11.7494Z" fill="#FF7931"/>
<path d="M8.09552 13.7447H0.0351562V11.3994H8.09552V13.7447ZM0.742205 13.0446H7.38848V12.0995H0.742205V13.0446Z" fill="#FF7931"/>
<path d="M3.81782 7.47888H1.97949V16.65H3.81782V7.47888Z" fill="#FF7931"/>
<path d="M4.17136 17.0001H1.62598V7.12891H4.17136V17.0001ZM2.33302 16.3H3.46431V7.82899H2.33302V16.3Z" fill="#FF7931"/>
</g></symbol><symbol id="rouble-old" viewBox="0 0 12 13"><g fill="none">
<mask id="path-1-inside-1" fill="white">
<path fill-rule="evenodd" clip-rule="evenodd" d="M4.83323 8.02118H6.13875H6.13889C6.6666 8.02118 7.19432 8.02118 7.7498 7.96764C9.80529 7.86057 11.4441 6.1742 11.4997 4.11307C11.5275 1.99841 9.91641 0.151423 7.86092 0.0443515C6.5554 -0.00918426 5.27766 -0.00918589 3.9166 0.017582C3.3055 0.0443499 2.69441 0.0443515 2.05554 0.0443515H1.77777V5.45148V6.20093H0.5V7.99438H1.77777V8.71716H0.527771V10.5106H1.77777V13H3.77771V10.5106H6.86092V8.71716H3.77771V8.02118H4.83323ZM3.77771 6.20093H4.24988V6.22773H4.63881H5.111H5.22211C6.38874 6.2545 7.19427 6.22773 7.66648 6.20096C8.77755 6.09389 9.66642 5.13024 9.63865 4.00599C9.63865 2.82821 8.69423 1.86457 7.49982 1.81103C6.83568 1.77103 6.17153 1.77586 5.48421 1.78086H5.48421H5.4842H5.4842H5.48419H5.48418H5.48418C5.25164 1.78255 5.01644 1.78426 4.77769 1.78426H3.77771V5.45148V6.20093Z"/>
</mask>
<path fill-rule="evenodd" clip-rule="evenodd" d="M4.83323 8.02118H6.13875H6.13889C6.6666 8.02118 7.19432 8.02118 7.7498 7.96764C9.80529 7.86057 11.4441 6.1742 11.4997 4.11307C11.5275 1.99841 9.91641 0.151423 7.86092 0.0443515C6.5554 -0.00918426 5.27766 -0.00918589 3.9166 0.017582C3.3055 0.0443499 2.69441 0.0443515 2.05554 0.0443515H1.77777V5.45148V6.20093H0.5V7.99438H1.77777V8.71716H0.527771V10.5106H1.77777V13H3.77771V10.5106H6.86092V8.71716H3.77771V8.02118H4.83323ZM3.77771 6.20093H4.24988V6.22773H4.63881H5.111H5.22211C6.38874 6.2545 7.19427 6.22773 7.66648 6.20096C8.77755 6.09389 9.66642 5.13024 9.63865 4.00599C9.63865 2.82821 8.69423 1.86457 7.49982 1.81103C6.83568 1.77103 6.17153 1.77586 5.48421 1.78086H5.48421H5.4842H5.4842H5.48419H5.48418H5.48418C5.25164 1.78255 5.01644 1.78426 4.77769 1.78426H3.77771V5.45148V6.20093Z" fill="#A8A8A8"/>
<path d="M7.7498 7.96764L7.73679 7.71774L7.72582 7.7188L7.7498 7.96764ZM11.4997 4.11307L11.7496 4.11981L11.7497 4.11636L11.4997 4.11307ZM7.86092 0.0443515L7.87392 -0.205325L7.87116 -0.205439L7.86092 0.0443515ZM3.9166 0.017582L3.91168 -0.232442L3.90566 -0.232179L3.9166 0.017582ZM1.77777 0.0443515V-0.205648H1.52777V0.0443515H1.77777ZM1.77777 6.20093V6.45093H2.02777V6.20093H1.77777ZM0.5 6.20093V5.95093H0.25V6.20093H0.5ZM0.5 7.99438H0.25V8.24438H0.5V7.99438ZM1.77777 7.99438H2.02777V7.74438H1.77777V7.99438ZM1.77777 8.71716V8.96716H2.02777V8.71716H1.77777ZM0.527771 8.71716V8.46716H0.277771V8.71716H0.527771ZM0.527771 10.5106H0.277771V10.7606H0.527771V10.5106ZM1.77777 10.5106H2.02777V10.2606H1.77777V10.5106ZM1.77777 13H1.52777V13.25H1.77777V13ZM3.77771 13V13.25H4.02771V13H3.77771ZM3.77771 10.5106V10.2606H3.52771V10.5106H3.77771ZM6.86092 10.5106V10.7606H7.11092V10.5106H6.86092ZM6.86092 8.71716H7.11092V8.46716H6.86092V8.71716ZM3.77771 8.71716H3.52771V8.96716H3.77771V8.71716ZM3.77771 8.02118V7.77118H3.52771V8.02118H3.77771ZM4.24988 6.20093H4.49988V5.95093H4.24988V6.20093ZM3.77771 6.20093H3.52771V6.45093H3.77771V6.20093ZM4.24988 6.22773H3.99988V6.47773H4.24988V6.22773ZM5.22211 6.22773L5.22785 5.97773H5.22211V6.22773ZM7.66648 6.20096L7.68064 6.45076L7.69046 6.44981L7.66648 6.20096ZM9.63865 4.00599H9.38857L9.38872 4.01217L9.63865 4.00599ZM7.49982 1.81103L7.48479 2.06061L7.48863 2.06078L7.49982 1.81103ZM5.48421 1.78086V2.03087L5.48603 2.03085L5.48421 1.78086ZM5.48418 1.78086V1.53085L5.48236 1.53087L5.48418 1.78086ZM3.77771 1.78426V1.53426H3.52771V1.78426H3.77771ZM6.13875 7.77118H4.83323V8.27118H6.13875V7.77118ZM6.13889 7.77118H6.13875V8.27118H6.13889V7.77118ZM7.72582 7.7188C7.18412 7.771 6.66811 7.77118 6.13889 7.77118V8.27118C6.66509 8.27118 7.20451 8.27135 7.77379 8.21649L7.72582 7.7188ZM11.2498 4.10634C11.1977 6.03772 9.66142 7.61773 7.7368 7.71798L7.76281 8.21731C9.94917 8.10342 11.6905 6.31068 11.7496 4.11981L11.2498 4.10634ZM7.84791 0.294013C9.75701 0.393459 11.2759 2.11675 11.2497 4.10979L11.7497 4.11636C11.779 1.88007 10.0758 -0.090613 7.87392 -0.20531L7.84791 0.294013ZM3.92151 0.267534C5.27954 0.240826 6.55189 0.240882 7.85068 0.294142L7.87116 -0.205439C6.55892 -0.25925 5.27579 -0.259197 3.91168 -0.23237L3.92151 0.267534ZM2.05554 0.294351C2.69344 0.294351 3.31005 0.294391 3.92754 0.267342L3.90566 -0.232179C3.30096 -0.205691 2.69538 -0.205648 2.05554 -0.205648V0.294351ZM1.77777 0.294351H2.05554V-0.205648H1.77777V0.294351ZM2.02777 5.45148V0.0443515H1.52777V5.45148H2.02777ZM2.02777 6.20093V5.45148H1.52777V6.20093H2.02777ZM0.5 6.45093H1.77777V5.95093H0.5V6.45093ZM0.75 7.99438V6.20093H0.25V7.99438H0.75ZM1.77777 7.74438H0.5V8.24438H1.77777V7.74438ZM2.02777 8.71716V7.99438H1.52777V8.71716H2.02777ZM0.527771 8.96716H1.77777V8.46716H0.527771V8.96716ZM0.777771 10.5106V8.71716H0.277771V10.5106H0.777771ZM1.77777 10.2606H0.527771V10.7606H1.77777V10.2606ZM2.02777 13V10.5106H1.52777V13H2.02777ZM3.77771 12.75H1.77777V13.25H3.77771V12.75ZM3.52771 10.5106V13H4.02771V10.5106H3.52771ZM6.86092 10.2606H3.77771V10.7606H6.86092V10.2606ZM6.61092 8.71716V10.5106H7.11092V8.71716H6.61092ZM3.77771 8.96716H6.86092V8.46716H3.77771V8.96716ZM3.52771 8.02118V8.71716H4.02771V8.02118H3.52771ZM4.83323 7.77118H3.77771V8.27118H4.83323V7.77118ZM4.24988 5.95093H3.77771V6.45093H4.24988V5.95093ZM4.49988 6.22773V6.20093H3.99988V6.22773H4.49988ZM4.63881 5.97773H4.24988V6.47773H4.63881V5.97773ZM5.111 5.97773H4.63881V6.47773H5.111V5.97773ZM5.22211 5.97773H5.111V6.47773H5.22211V5.97773ZM7.65233 5.95136C7.18686 5.97775 6.38797 6.00442 5.22785 5.9778L5.21638 6.47767C6.38951 6.50458 7.20167 6.47771 7.68063 6.45056L7.65233 5.95136ZM9.38872 4.01217C9.41314 5.00033 8.62804 5.85714 7.6425 5.95212L7.69046 6.44981C8.92707 6.33064 9.91971 5.26016 9.88857 3.99982L9.38872 4.01217ZM7.48863 2.06078C8.55423 2.10854 9.38865 2.96666 9.38865 4.00599H9.88865C9.88865 2.68975 8.83423 1.62059 7.51102 1.56128L7.48863 2.06078ZM5.48603 2.03085C6.17482 2.02584 6.83049 2.02117 7.48479 2.06058L7.51485 1.56149C6.84087 1.52089 6.16824 1.52588 5.4824 1.53087L5.48603 2.03085ZM5.48421 2.03086H5.48421V1.53086H5.48421V2.03086ZM5.4842 2.03086H5.48421V1.53086H5.4842V2.03086ZM5.4842 2.03086H5.4842V1.53086H5.4842V2.03086ZM5.48419 2.03086H5.4842V1.53086H5.48419V2.03086ZM5.48418 2.03086H5.48419V1.53086H5.48418V2.03086ZM5.48418 2.03086H5.48418V1.53086H5.48418V2.03086ZM4.77769 2.03426C5.01749 2.03426 5.25359 2.03255 5.486 2.03085L5.48236 1.53087C5.24968 1.53256 5.01538 1.53426 4.77769 1.53426V2.03426ZM3.77771 2.03426H4.77769V1.53426H3.77771V2.03426ZM4.02771 5.45148V1.78426H3.52771V5.45148H4.02771ZM3.52771 5.45148V6.20093H4.02771V5.45148H3.52771Z" fill="white" mask="url(#path-1-inside-1)"/>
</g></symbol><symbol id="search-focus" viewBox="0 0 16 17"><g fill="none">
<path fill-rule="evenodd" clip-rule="evenodd" d="M6.16666 12.5613C2.76091 12.5613 0 9.74937 0 6.28066C0 2.81195 2.76091 0 6.16666 0C9.57241 0 12.3333 2.81195 12.3333 6.28066C12.3333 7.77037 11.8241 9.13895 10.9732 10.2157L15.8047 15.1366C16.0651 15.4018 16.0651 15.8317 15.8047 16.0969C15.5444 16.362 15.1223 16.362 14.8619 16.0969L10.0304 11.1759C8.97322 12.0426 7.62941 12.5613 6.16666 12.5613ZM6.16666 11.2026C8.83604 11.2026 11 8.99866 11 6.27996C11 3.56125 8.83604 1.3573 6.16666 1.3573C3.49727 1.3573 1.33331 3.56125 1.33331 6.27996C1.33331 8.99866 3.49727 11.2026 6.16666 11.2026Z" fill="#ff7931"/>
</g></symbol><symbol id="search" viewBox="0 0 16 17"><g fill="none">
<path fill-rule="evenodd" clip-rule="evenodd" d="M6.16666 12.5613C2.76091 12.5613 0 9.74937 0 6.28066C0 2.81195 2.76091 0 6.16666 0C9.57241 0 12.3333 2.81195 12.3333 6.28066C12.3333 7.77037 11.8241 9.13895 10.9732 10.2157L15.8047 15.1366C16.0651 15.4018 16.0651 15.8317 15.8047 16.0969C15.5444 16.362 15.1223 16.362 14.8619 16.0969L10.0304 11.1759C8.97322 12.0426 7.62941 12.5613 6.16666 12.5613ZM6.16666 11.2026C8.83604 11.2026 11 8.99866 11 6.27996C11 3.56125 8.83604 1.3573 6.16666 1.3573C3.49727 1.3573 1.33331 3.56125 1.33331 6.27996C1.33331 8.99866 3.49727 11.2026 6.16666 11.2026Z" fill="#C4C4C4"/>
</g></symbol><symbol id="shops" viewBox="0 0 15 18"><g fill="none">
<path d="M5.83333 11.0286C5.55719 11.0286 5.33333 11.2524 5.33333 11.5286V16.1C5.33333 16.3761 5.10948 16.6 4.83333 16.6H1.5C1.22386 16.6 1 16.3761 1 16.1V6.8014C1 6.65543 1.06378 6.51676 1.1746 6.42177L7.1746 1.27891C7.36185 1.11842 7.63815 1.11842 7.8254 1.27891L13.8254 6.42177C13.9362 6.51676 14 6.65543 14 6.8014V16.1C14 16.3761 13.7761 16.6 13.5 16.6H10.1667C9.89052 16.6 9.66667 16.3761 9.66667 16.1V11.5286C9.66667 11.2524 9.44281 11.0286 9.16667 11.0286H5.83333Z" stroke="#E5E5E5" stroke-linecap="round" stroke-linejoin="round"/>
</g></symbol><symbol id="snowflake" viewBox="0 0 28 31"><g fill="none">
<path d="M27.3659 19.0904L26.8266 17.0477L21.2965 18.5077L18.8585 17.047V13.6654L21.4823 12.1424L27.1395 13.6414L27.6802 11.5987L24.068 10.6416L27.6788 8.54562L26.6182 6.71818L23.0495 8.78964L23.9832 5.25144L21.9404 4.71223L20.4691 10.2875L17.8006 11.8364L14.8844 10.1531V7.13661L19.0146 3.03434L17.5262 1.53495L14.8844 4.15888V0H12.7715V4.13066L10.1782 1.53757L8.6843 3.03147L12.7715 7.1183V10.153L9.85466 11.8369L7.24338 10.3286L7.24368 10.3285L5.76079 4.71206L3.71805 5.25127L4.66548 8.83955L1.05877 6.75615L0.00160314 8.5857L3.58777 10.6572L0.0222757 11.5985L0.56149 13.6413L6.17799 12.1584L6.17639 12.1525L8.79812 13.6668V17.1119L6.16466 18.6404L0.561406 17.161L0.0221912 19.2038L3.57684 20.1423L0 22.2184L1.06062 24.0453L4.67325 21.9486L3.71856 25.5508L5.76062 26.0915L7.25579 20.4498L9.92034 18.9034L12.7715 20.5499V23.6842L8.68434 27.771L10.1782 29.2649L12.7715 26.6718V30.8028H14.8844V26.6435L17.5256 29.2676L19.0153 27.7682L14.8844 23.6642V20.5499L17.7921 18.871L20.4557 20.467L21.6151 25.9263L23.6813 25.4876L22.93 21.9495L26.2922 23.964L27.3775 22.151L23.8281 20.0244L27.3659 19.0904ZM16.7456 17.0353L13.828 18.7196L10.9111 17.0353V13.6672L13.828 11.9828L16.7456 13.6672V17.0353Z" fill="#6CA7FF"/>
</g></symbol><symbol id="spares" viewBox="0 0 56 55"><g fill="none">
<circle cx="28" cy="27.5" r="26.5" stroke="white" stroke-width="2"/>
<circle cx="28.0002" cy="27.5" r="13.3478" stroke="white" stroke-width="2"/>
<circle cx="8.27184" cy="28.0978" r="2.98913" fill="white"/>
<circle cx="47.7284" cy="28.0978" r="2.98913" fill="white"/>
<circle cx="43.5436" cy="15.5435" r="2.3913" fill="white"/>
<circle cx="33.9782" cy="8.36951" r="2.3913" fill="white"/>
<circle cx="22.0217" cy="8.36951" r="2.3913" fill="white"/>
<circle cx="12.4562" cy="15.5435" r="2.3913" fill="white"/>
<circle r="2.3913" transform="matrix(-1 0 0 1 43.5428 39.4565)" fill="white"/>
<circle r="2.3913" transform="matrix(-1 0 0 1 33.9773 46.6304)" fill="white"/>
<circle r="2.3913" transform="matrix(-1 0 0 1 22.0208 46.6304)" fill="white"/>
<circle r="2.3913" transform="matrix(-1 0 0 1 12.4559 39.4565)" fill="white"/>
</g></symbol><symbol id="star-active" viewBox="0 0 23 21"><g fill="none">
<path d="M11.7125 0L14.3029 7.9463H22.6854L15.9038 12.8574L18.4941 20.8037L11.7125 15.8926L4.93098 20.8037L7.52131 12.8574L0.739735 7.9463H9.12222L11.7125 0Z" fill="#FF7931"/>
</g></symbol><symbol id="star" viewBox="0 0 23 21"><g fill="none">
<path d="M11.1125 0L13.7028 7.9463H22.0853L15.3037 12.8574L17.894 20.8037L11.1125 15.8926L4.33088 20.8037L6.92121 12.8574L0.139637 7.9463H8.52212L11.1125 0Z" fill="#E2E2E2"/>
</g></symbol><symbol id="sun" viewBox="0 0 31 31"><g fill="none">
<path d="M6.52246 8.51569C7.07749 9.06931 7.97061 9.07776 8.52423 8.52414C9.07363 7.97474 9.07786 7.08585 8.51437 6.52237L6.54218 4.55018C5.98574 3.99374 5.09544 3.98529 4.54041 4.54032C3.98961 5.08971 3.98538 5.9772 4.55027 6.54209L6.52246 8.51569Z" fill="#FF7931"/>
<path d="M29.5787 14.0914H26.7894C26.002 14.0914 25.3652 14.7169 25.3652 15.5001C25.3652 16.2792 25.9893 16.9088 26.7894 16.9088H29.5787C30.3661 16.9088 31.0001 16.2848 31.0001 15.5001C31.0001 14.7225 30.3746 14.0914 29.5787 14.0914Z" fill="#FF7931"/>
<path d="M5.63483 15.5001C5.63483 14.7225 5.00936 14.0914 4.21203 14.0914H1.42139C0.635327 14.0914 0 14.7169 0 15.5001C0 16.2792 0.624057 16.9088 1.42139 16.9088H4.21203C4.99809 16.9088 5.63483 16.2848 5.63483 15.5001Z" fill="#FF7931"/>
<path d="M15.5001 7.0437C10.833 7.0437 7.04785 10.8289 7.04785 15.4959C7.04785 20.163 10.833 23.9482 15.5001 23.9482C20.1657 23.9482 23.9523 20.163 23.9523 15.4959C23.9523 10.8289 20.1657 7.0437 15.5001 7.0437ZM15.5001 21.1308C12.3883 21.1308 9.86527 18.6078 9.86527 15.4959C9.86527 12.3841 12.3883 9.86111 15.5001 9.86111C18.6119 9.86111 21.1349 12.3841 21.1349 15.4959C21.1349 18.6078 18.6119 21.1308 15.5001 21.1308Z" fill="#FF7931"/>
<path d="M6.52237 22.4856L4.55018 24.4578C3.99374 25.0142 3.98529 25.9045 4.54032 26.4595C5.09112 27.0089 5.97861 27.0132 6.54209 26.4497L8.51428 24.4775C9.07072 23.921 9.07917 23.0307 8.52414 22.4757C7.97334 21.9235 7.08585 21.9221 6.52237 22.4856Z" fill="#FF7931"/>
<path d="M24.4776 8.5157L26.4498 6.5421C27.0062 5.98566 27.0119 5.09536 26.4596 4.54033C25.9074 3.99094 25.0214 3.98671 24.4579 4.55019L22.4857 6.52238C21.9292 7.07882 21.9222 7.97053 22.4758 8.52415C23.028 9.07355 23.9141 9.07778 24.4776 8.5157Z" fill="#FF7931"/>
<path d="M15.5 25.3652C14.721 25.3652 14.0913 25.9907 14.0913 26.7894V29.5787C14.0913 30.3661 14.7168 31.0001 15.5 31.0001C16.279 31.0001 16.9087 30.3774 16.9087 29.5787V26.7894C16.9087 26.002 16.2847 25.3652 15.5 25.3652Z" fill="#FF7931"/>
<path d="M24.4777 22.4857C23.9212 21.9292 23.0309 21.9222 22.4759 22.4758C21.9265 23.028 21.9209 23.9141 22.4858 24.4776L24.458 26.4498C25.0144 27.0062 25.9047 27.0119 26.4597 26.4596C27.0105 25.9102 27.0148 25.0214 26.4499 24.4579L24.4777 22.4857Z" fill="#FF7931"/>
<path d="M15.5 5.63483C16.279 5.63483 16.9087 5.01077 16.9087 4.21203V1.42279C16.9087 0.636735 16.2847 0 15.5 0C14.721 0 14.0913 0.625466 14.0913 1.42279V4.21203C14.0913 4.99809 14.7168 5.63483 15.5 5.63483Z" fill="#FF7931"/>
</g></symbol><symbol id="timer" viewBox="0 0 28 28"><g fill="none">
<path fill-rule="evenodd" clip-rule="evenodd" d="M25.2 13.985C25.2 8.26735 20.9248 3.54933 15.4 2.85965V6.04525C15.4 6.81928 14.7732 7.44675 14 7.44675C13.2268 7.44675 12.6 6.81928 12.6 6.04525V2.30986C12.6 0.943199 13.7847 -0.0309289 14.9364 0.000750769C15.0048 0.0026329 15.0729 0.00895811 15.1409 0.0152728C15.1635 0.0173713 15.1861 0.0194688 15.2087 0.0214016C22.3748 0.63485 28 6.65228 28 13.985C28 21.7253 21.732 28 14 28C6.26801 28 0 21.7253 0 13.985C0 10.2186 1.49285 6.68527 4.10051 4.07481C4.64724 3.52749 5.53367 3.52749 6.08041 4.07481C6.62714 4.62213 6.62714 5.50952 6.08041 6.05684C3.99265 8.14685 2.8 10.9696 2.8 13.985C2.8 20.1772 7.81441 25.197 14 25.197C20.1856 25.197 25.2 20.1772 25.2 13.985ZM12.3929 15.6795C12.2632 15.5496 12.1519 15.4083 12.0591 15.2587L12.0563 15.2615L7.41486 7.77871C7.33329 7.6472 7.37366 7.47438 7.50503 7.39272C7.59549 7.33649 7.70998 7.33649 7.80044 7.39272L15.275 12.039L15.2722 12.0419C15.4217 12.1348 15.563 12.2462 15.6928 12.3762C16.604 13.2884 16.604 14.7673 15.6928 15.6795C14.7816 16.5917 13.3042 16.5917 12.3929 15.6795Z" fill="#C4C4C4"/>
</g></symbol><symbol id="tires" viewBox="0 0 65 65"><g fill="none">
<path d="M32.5 64C49.897 64 64 49.897 64 32.5C64 15.103 49.897 1 32.5 1C15.103 1 1 15.103 1 32.5C1 49.897 15.103 64 32.5 64Z" stroke="white" stroke-width="2" stroke-miterlimit="10"/>
<path d="M32.5002 56.7053C45.8684 56.7053 56.7054 45.8682 56.7054 32.5C56.7054 19.1318 45.8684 8.29474 32.5002 8.29474C19.132 8.29474 8.29492 19.1318 8.29492 32.5C8.29492 45.8682 19.132 56.7053 32.5002 56.7053Z" stroke="white" stroke-width="2" stroke-miterlimit="10"/>
<path d="M32.4999 42.3368C37.9327 42.3368 42.3368 37.9327 42.3368 32.5C42.3368 27.0673 37.9327 22.6631 32.4999 22.6631C27.0672 22.6631 22.6631 27.0673 22.6631 32.5C22.6631 37.9327 27.0672 42.3368 32.4999 42.3368Z" stroke="white" stroke-width="2" stroke-miterlimit="10"/>
<path d="M32.4998 37.8053C35.4908 37.8053 37.9156 35.3805 37.9156 32.3895C37.9156 29.3984 35.4908 26.9737 32.4998 26.9737C29.5087 26.9737 27.084 29.3984 27.084 32.3895C27.084 35.3805 29.5087 37.8053 32.4998 37.8053Z" stroke="white" stroke-width="2" stroke-miterlimit="10"/>
<path d="M24.8737 9.51056C25.0948 10.5053 25.3158 11.6106 25.3158 12.6053C25.3158 19.5685 19.679 25.2053 12.7158 25.2053C11.6106 25.2053 10.6158 25.0948 9.62109 24.7632" stroke="white" stroke-width="2" stroke-miterlimit="10"/>
<path d="M40.1262 9.51056C39.9051 10.5053 39.6841 11.6106 39.6841 12.6053C39.6841 19.5685 45.3209 25.2053 52.2841 25.2053C53.3893 25.2053 54.3841 25.0948 55.3788 24.7632" stroke="white" stroke-width="2" stroke-miterlimit="10"/>
<path d="M24.8737 55.4894C25.0948 54.4947 25.3158 53.3894 25.3158 52.3947C25.3158 45.4315 19.679 39.7947 12.7158 39.7947C11.6106 39.7947 10.6158 39.9052 9.62109 40.2368" stroke="white" stroke-width="2" stroke-miterlimit="10"/>
<path d="M40.1262 55.4895C39.9051 54.4947 39.6841 53.3895 39.6841 52.3947C39.6841 45.4316 45.3209 39.7947 52.2841 39.7947C53.3893 39.7947 54.3841 39.9053 55.3788 40.2368" stroke="white" stroke-width="2" stroke-miterlimit="10"/>
</g></symbol><symbol id="tools" viewBox="0 0 44 82"><g fill="none">
<rect x="1" y="39" width="42" height="7" stroke="white" stroke-width="2"/>
<path d="M14.344 34L17.344 24H27.2192L29.7192 34H14.344Z" stroke="white" stroke-width="2"/>
<path d="M14.3795 51L17.3249 60H26.6751L29.6205 51H14.3795Z" stroke="white" stroke-width="2"/>
<mask id="path-4-inside-1" fill="white">
<path d="M17.0576 0H26.9419V19.7685H17.0576V0Z"/>
</mask>
<path d="M17.0576 0V-2H15.0576V0H17.0576ZM26.9419 0H28.9419V-2H26.9419V0ZM26.9419 19.7685V21.7685H28.9419V19.7685H26.9419ZM17.0576 19.7685H15.0576V21.7685H17.0576V19.7685ZM17.0576 2H26.9419V-2H17.0576V2ZM24.9419 0V19.7685H28.9419V0H24.9419ZM26.9419 17.7685H17.0576V21.7685H26.9419V17.7685ZM19.0576 19.7685V0H15.0576V19.7685H19.0576Z" fill="white" mask="url(#path-4-inside-1)"/>
<mask id="path-6-inside-2" fill="white">
<path d="M17.0576 63.8188H26.9419V81.1163H17.0576V63.8188Z"/>
</mask>
<path d="M17.0576 63.8188V61.8188H15.0576V63.8188H17.0576ZM26.9419 63.8188H28.9419V61.8188H26.9419V63.8188ZM26.9419 81.1163V83.1163H28.9419V81.1163H26.9419ZM17.0576 81.1163H15.0576V83.1163H17.0576V81.1163ZM17.0576 65.8188H26.9419V61.8188H17.0576V65.8188ZM24.9419 63.8188V81.1163H28.9419V63.8188H24.9419ZM26.9419 79.1163H17.0576V83.1163H26.9419V79.1163ZM19.0576 81.1163V63.8188H15.0576V81.1163H19.0576Z" fill="white" mask="url(#path-6-inside-2)"/>
<circle cx="22" cy="6" r="2" fill="white"/>
<circle cx="22" cy="75" r="2" fill="white"/>
</g></symbol><symbol id="user-grey" viewBox="0 0 24 26"><g fill="none">
<path d="M12 14.9925C14.75 14.9925 17.5 12.7854 17.5 8.62105C17.5 4.45673 15.6667 1.95813 12 1.95813C8.33333 1.95813 6.5 5.33123 6.5 8.62105C6.5 12.7854 9.25 14.9925 12 14.9925ZM12 14.9925C17.5 14.9925 23 19.3858 23 24.4455H1C1 19.948 6.5 14.9925 12 14.9925Z" stroke="#E5E5E5" stroke-width="2" stroke-linecap="round" stroke-linejoin="round"/>
</g></symbol><symbol id="user" viewBox="0 0 24 26"><g fill="none">
<path d="M12 14.9925C14.75 14.9925 17.5 12.7854 17.5 8.62105C17.5 4.45673 15.6667 1.95813 12 1.95813C8.33333 1.95813 6.5 5.33123 6.5 8.62105C6.5 12.7854 9.25 14.9925 12 14.9925ZM12 14.9925C17.5 14.9925 23 19.3858 23 24.4455H1C1 19.948 6.5 14.9925 12 14.9925Z" stroke="#A8A8A8" stroke-width="2" stroke-linecap="round" stroke-linejoin="round"/>
</g></symbol></svg>